<?xml version="1.0" encoding="utf-8"?>
<!-- Generator: Adobe Illustrator 25.0.0, SVG Export Plug-In . SVG Version: 6.00 Build 0)  -->
<svg version="1.1" id="Слой_1" xmlns="http://www.w3.org/2000/svg" xmlns:xlink="http://www.w3.org/1999/xlink" x="0px" y="0px"
	 viewBox="0 0 420.4 342" style="enable-background:new 0 0 420.4 342;" xml:space="preserve">
<style type="text/css">
	.st0{fill:#FFFFFF;}
</style>
<g>
	<path class="st0" d="M400.5,130.2c-2.2-4-4.3-8-6.3-12.1c-3.4-7-3.2-6.9-10.2-2.9c-11.9,6.8-23.7,13.5-35.8,19.9
		c-4.1,2.2-8.8,3.1-13.4,4.7c4.6,7.9,9.7,15.1,13.2,23c9,20.1,9.4,40.1-4.4,58.5c-20.7,27.4-69.3,33.8-96.1,12.5
		c-19-15-30.5-47.3-1.4-70.5c8.6-6.9,18-13.4,28.1-17.6c21.4-8.8,43.3-16.5,65.2-23.8c40.9-13.6,68.7-38.2,72.4-83.7
		c0.7-9.3,0.1-20.8,0.1-30.2c-0.6,0.6-1,1-1.9,1.8c-1.9,1.6-3.9,3.2-5.7,4.9C384,35.2,359.5,47.3,331.9,54
		c-31.9,7.7-64.4,11.2-97.1,12.5c-46.5,1.8-92.8-0.9-138.5-10.3C64.5,49.6,36,36.8,13.1,13.1c-1.2-1.2-2.6-2.1-4.7-3.7
		c-2.1,13-1.7,25.2,0.1,37.3c5.1,32.9,23.9,55.4,53.9,68.1c17.8,7.5,36.6,12.7,54.9,19.2c20.4,7.3,40.3,15.7,57,30.1
		c25.7,22.2,17.4,50.2,2.5,65c-18.2,18.1-40.7,20.8-64.6,14.9c-18.3-4.5-33.6-13.8-41.9-31.3c-9.4-19.8-5.8-39,4.8-57.4
		c2.9-5.1,6.2-9.9,9.9-15.6c-20.2-4.4-35.9-16.1-52.5-26c-3.2-1.9-4.8-1.3-6.4,2c-3,6.4-6.4,12.7-9.8,19.1
		c-5.9,11.2-8.7,23.2-9.8,35.8C2.2,219,51.2,286.2,121.7,276.3c16.4-2.3,28.3,1.7,38.5,15.3c10.2,13.5,22.3,25.9,34.6,37.6
		c9.9,9.3,18.8,8.9,29.3,0.3c6.4-5.2,12.3-11.3,17.9-17.4c9.4-10.3,18.1-21.1,27.5-31.3c2.2-2.4,5.9-4.4,9.1-4.7
		c5.9-0.6,11.9-0.1,17.8,0.4c25.5,2.2,49.8-0.7,70.2-17.6c9.1-7.5,18.3-15.6,25.3-25C415.9,201.3,420.3,166.6,400.5,130.2z
		 M16.6,184.1c-3.3-20.3,2.8-43,15.3-57.8c-12.3,47.9,1,89.8,29.5,128.1C38.9,235.6,21.4,213.7,16.6,184.1z M168.2,95.4
		c-40.1-3-79.6-8.8-115.6-28.6c-14.1-7.7-26.4-17.6-35-31.5c-1.3-2.1-2.4-4.3-3.6-6.5c26.9,27.3,61.8,35.6,97.2,41.8
		c47.9,8.4,96.4,8.9,144.8,5.9c34.9-2.2,69.4-6.5,102.6-18.6c16.5-6.1,32.1-13.8,45.2-26.4c-2.7,4.1-5.1,8.4-8.2,12.1
		c-15.7,18.8-36.9,28.9-59.5,36.5c-24.5,8.2-50,12.1-75.7,14.4C229.7,97.2,198.9,97.7,168.2,95.4z M209.6,305.2
		c-10.2-15.4-19.5-29.3-29.2-43.8c9.9-8.6,19.2-16.8,29.1-25.5c9.6,8.3,19.1,16.6,29.2,25.4C229.3,275.6,219.9,289.6,209.6,305.2z
		 M382.2,229.3c-6.9,9.3-15.4,17.5-24.3,25.6c27.9-38.8,41.7-80.6,29.3-128.6c8,10.5,13,21.9,15.2,34.4
		C406.9,186.8,397.2,209,382.2,229.3z"/>
	<path class="st0" d="M84.9,196.9c0,0,10.6,12.3,37.8,12.4s39.7-9.4,41-10.7c3.9-3.9,15,1.4,4.3,9.9c-14.1,11.2-30,12.1-48,10.7
		c-21.6-1.7-36.3-14.6-38.7-17.3C78.9,199.1,81.6,194.2,84.9,196.9z"/>
	<path class="st0" d="M332.5,196.9c0,0-10.6,12.3-37.8,12.4s-39.7-9.4-41-10.7c-3.9-3.9-15,1.4-4.3,9.9c14.1,11.2,30,12.1,48,10.7
		c21.6-1.7,36.3-14.6,38.7-17.3C338.5,199.1,335.8,194.2,332.5,196.9z"/>
</g>
</svg>
